<svg xmlns="http://www.w3.org/2000/svg" xmlns:xlink="http://www.w3.org/1999/xlink" viewBox="0 0 356.244 355.91"><defs><circle id="a" cx="178.122" cy="177.788" r="178.122"/></defs><use xlink:href="#a" overflow="visible" fill="#B3E5FC"/><clipPath id="b"><use xlink:href="#a" overflow="visible"/></clipPath><g clip-path="url(#b)"><defs><path id="c" d="M29.122 239h298v148h-298z"/></defs><clipPath id="d"><use xlink:href="#c" overflow="visible"/></clipPath><path clip-path="url(#d)" fill="#575757" stroke="#000" stroke-width="3" stroke-miterlimit="10" d="M299.622 428.532c0 22.073-17.894 39.968-39.967 39.968H96.589c-22.073 0-39.967-17.895-39.967-39.968V305.468c0-22.073 17.894-39.968 39.967-39.968h163.066c22.073 0 39.967 17.895 39.967 39.968v123.064z"/><path d="M281.122 317.577c0-28.777-6.867-35.801-21.143-35.801s-18.105 6.798-18.105 6.798c-.905-8.839 2.899-14.728 2.899-14.728s-7.952 8.61-13.615 11.557c-5.663 2.947.441-13.818 1.348-17.851.905-4.028-15.681-.997-15.681-.997-36.977 4.489-74.279.73-81.933.006-6.679-.633-10.191 12.295-10.976 15.603l-.164-.123c-7.252-5.438-15.841-7.666-15.841-7.666 4.306 6.57 4.576 14.807 4.576 14.807-44.186-24.017-40.022 18.552-39.569 32.825.212 6.573.263 52.993.259 64.993h207.945v-69.423z"/><defs><path id="e" d="M27.122 237h302v150h-302z"/></defs><clipPath id="f"><use xlink:href="#e" overflow="visible"/></clipPath><g clip-path="url(#f)" fill="none"><path d="M301.122 431.113c0 22.408-17.934 40.887-40.345 40.887H94.439c-22.41 0-40.317-18.478-40.317-40.887v-126.29c0-22.409 17.907-40.823 40.317-40.823h166.338c22.411 0 40.345 18.414 40.345 40.823v126.29z"/><path d="M305.122 430.38c0 24.091-19.529 43.62-43.619 43.62H95.741c-24.09 0-43.619-19.529-43.619-43.62V304.62c0-24.091 19.529-43.62 43.619-43.62h165.762c24.09 0 43.619 19.529 43.619 43.62v125.76zm-6-126.547c0-20.728-16.625-37.833-37.355-37.833H95.503c-20.729 0-37.381 17.105-37.381 37.833v126.215c0 20.729 16.652 37.952 37.381 37.952h166.264c20.73 0 37.355-17.223 37.355-37.952V303.833z"/></g><path fill="#FEE8DC" d="M65.18 132.58s-8.578-15.246-20.342-15.246c-11.761 0-12.779 19.023-12.779 23.235s-.581 19.458 12.49 38.048c13.07 18.591 25.029 20.703 34.661 13.981 9.632-6.72-14.03-60.018-14.03-60.018z"/><path d="M68.873 199.135c-9.037 0-18.004-6.314-26.76-18.768-13.141-18.691-12.991-34.201-12.991-39.297v-.501c0-12.123 4.09-26.278 15.769-26.278 13.39 0 22.582 16.11 22.966 16.797l.118.257c7.42 16.716 23.535 56.388 12.983 63.749-3.843 2.681-7.913 4.041-12.085 4.041zm-23.524-78.758c-9.626 0-9.227 19.989-9.227 20.191v.531c0 4.615-.598 18.664 11.428 35.767 7.442 10.587 14.737 16.183 21.579 16.183 2.901 0 5.666-.991 8.467-2.946 3.578-2.495-1.516-26.15-14.811-56.138-.77-1.303-8.085-13.588-17.436-13.588z"/><path fill="#FECFBC" d="M41.052 147.566s-5.539-19.724 3.917-19.724c9.457 0 18.911 29.044 18.911 29.044s-15.533 16.749 9.591 24.044c0 0-17.831 8.24-28.097-14.184l-4.322-19.18z"/><path fill="#DC9F8D" d="M73.472 180.931c-25.124-7.295-9.591-24.044-9.591-24.044s-1.023-3.137-2.727-7.341c-.005.004-18.707 8.218-5.092 30.196 8.733 5.187 17.41 1.189 17.41 1.189z"/><path d="M65.822 183.431c-2.119 0-4.513-.318-7.002-1.238-5.983-2.213-10.816-7.268-14.366-15.023l1.844-.844c3.317 7.246 7.767 11.945 13.225 13.964 4.173 1.542 8.097 1.183 10.63.621-6.529-2.413-10.441-5.826-11.645-10.173-1.746-6.3 2.805-12.379 4.228-14.081-2.753-8.239-10.775-27.799-17.767-27.799-1.339 0-2.341.464-3.065 1.419-2.786 3.676-.855 13.53.125 17.016l-1.954.549c-.154-.552-3.747-13.565.212-18.79 1.118-1.474 2.693-2.222 4.682-2.222 9.907 0 18.884 26.7 19.875 29.745l.185.565-.404.438c-.06.064-5.876 6.454-4.16 12.627 1.183 4.255 5.654 7.538 13.29 9.754l2.605.756-2.462 1.138c-.199.091-3.494 1.578-8.076 1.578z"/><path d="M48.293 142.777l-1.787-.962c2.151-3.992 9.247-4.125 9.547-4.129l.025 2.029c-1.719.023-6.47.621-7.785 3.062zm6.912 37.505c-4.74-7.645-6.202-14.549-4.349-20.516 2.42-7.791 9.587-11.016 9.89-11.149l.817 1.857c-.066.029-6.645 3.014-8.777 9.917-1.661 5.377-.266 11.709 4.142 18.823l-1.723 1.068z"/><path fill="#FEE8DC" d="M289.822 132.58s8.575-15.246 20.341-15.246c11.761 0 12.779 19.023 12.779 23.235s.581 19.458-12.49 38.048c-13.069 18.591-25.029 20.703-34.661 13.981-9.633-6.72 14.031-60.018 14.031-60.018z"/><path d="M286.129 199.135c-4.174 0-8.236-1.36-12.078-4.042-10.553-7.361 5.569-47.032 12.988-63.749l.13-.257c.386-.687 8.671-16.797 22.061-16.797 11.679 0 14.893 14.155 14.893 26.278v.501c0 5.097 1.028 20.606-12.111 39.297-8.759 12.455-16.847 18.769-25.883 18.769zm6.413-65.184c-13.297 29.993-18.584 53.658-15.008 56.152 2.8 1.955 5.691 2.946 8.595 2.946 6.841 0 14.002-5.595 21.443-16.183 12.026-17.103 11.55-31.151 11.55-35.767v-.531c0-.202.277-20.191-9.35-20.191-8.102 0-15.002 9.681-17.23 13.574z"/><path fill="#FECFBC" d="M313.95 147.566s5.538-19.724-3.918-19.724c-9.457 0-18.913 29.044-18.913 29.044s15.536 16.749-9.589 24.044c0 0 17.831 8.24 28.098-14.184l4.322-19.18z"/><path fill="#DC9F8D" d="M281.53 180.931c25.125-7.295 9.589-24.044 9.589-24.044s1.024-3.137 2.726-7.341c.008.004 18.71 8.218 5.097 30.196-8.734 5.187-17.412 1.189-17.412 1.189z"/><path d="M289.181 183.431c-4.584 0-7.878-1.487-8.077-1.58l-2.463-1.138 2.605-.756c7.64-2.219 12.114-5.503 13.293-9.761 1.713-6.191-4.105-12.556-4.163-12.62l-.406-.437.185-.566c.99-3.044 9.972-29.745 19.878-29.745 1.989 0 3.564.748 4.682 2.222 3.959 5.225.367 18.239.213 18.79l-1.954-.549c.979-3.488 2.906-13.346.124-17.016-.724-.955-1.726-1.419-3.064-1.419-6.991 0-15.016 19.56-17.768 27.798 1.423 1.703 5.974 7.782 4.23 14.082-1.205 4.346-5.113 7.758-11.642 10.171 1.751.39 4.159.681 6.836.321 7.207-.968 12.934-5.984 17.017-14.904l1.846.844c-3.553 7.755-8.384 12.81-14.368 15.023a20.137 20.137 0 01-7.004 1.24z"/><path d="M306.706 142.776c-1.318-2.45-6.064-3.041-7.78-3.061l.023-2.029c.302.004 7.394.137 9.544 4.13l-1.787.96zm-6.906 37.506l-1.725-1.068c4.406-7.113 5.802-13.446 4.141-18.822-2.133-6.905-8.714-9.889-8.781-9.919l.818-1.857c.304.133 7.472 3.358 9.892 11.151 1.855 5.967.392 12.869-4.345 20.515z"/><path fill="#FEE8DC" d="M135.122 264.724c0 13.444 13.442 26.276 26.889 26.276h34.49c13.445 0 21.621-12.832 21.621-26.276V241h-83v23.724z"/><path d="M196.501 293h-34.49c-14.777 0-28.889-13.942-28.889-28.276V239h87v25.724c0 13.769-8.377 28.276-23.621 28.276zm-59.379-50v21.724c0 12.06 12.395 24.276 24.889 24.276h34.49c12.607 0 19.621-12.475 19.621-24.276V243h-79z"/><path fill="#FECFBC" d="M145.122 264.724c0 13.444 11.095 26.276 20.95 26.276h25.281c9.856 0 16.769-12.832 16.769-26.276V241h-63v23.724z"/><path d="M196.501 293h-34.49c-14.777 0-28.889-13.942-28.889-28.276V239h87v25.724c0 13.769-8.377 28.276-23.621 28.276zm-59.379-50v21.724c0 12.06 12.395 24.276 24.889 24.276h34.49c12.607 0 19.621-12.475 19.621-24.276V243h-79z"/><path fill="#FEE8DC" d="M236.379 243.689c37.422-36.472 43.534-60.716 47.287-84.125 3.752-23.409 14.636-56.62 7.881-88.807C284.789 38.569 261.787-25 177.216-25h-.076C92.567-25 69.564 38.569 62.809 70.758c-6.754 32.188 4.129 66.714 7.882 90.123 3.752 23.409 9.865 46.996 47.284 83.467 33.072 32.233 59.166 30.031 59.166 30.031s26.45 1.268 59.238-30.69z"/><path d="M176.117 277.361c-6.674 0-30.743-2.235-60.266-31.011-37.746-36.787-44.322-61.36-48.166-85.341-.811-5.053-1.972-10.719-3.201-16.718-4.482-21.873-10.062-49.096-4.654-74.866 7.751-36.93 33.298-98.883 117.31-98.883 84.081 0 109.632 61.953 117.385 98.883 5.382 25.641-.145 52.281-4.585 73.687-1.258 6.062-2.445 11.788-3.27 16.933-3.893 24.282-10.506 49.118-48.169 85.823-30.732 29.955-56.107 31.473-60.885 31.473-.184 0-.329-.002-.432-.004-.203.011-.561.024-1.067.024zm1.099-300.732c-79.787 0-104.057 58.923-111.43 94.047-5.147 24.534.292 51.07 4.661 72.393 1.242 6.066 2.417 11.795 3.248 16.977 3.817 23.809 9.943 46.41 46.404 81.945 28.597 27.873 51.682 29.284 56.018 29.284.467 0 .735-.017.792-.02l.185-.012.523.012c2.674 0 26.976-.834 56.638-29.745 36.33-35.405 42.682-59.193 46.405-82.426.848-5.282 2.048-11.074 3.32-17.206 4.324-20.852 9.709-46.804 4.589-71.201-7.374-35.125-31.646-94.048-111.353-94.048z"/><circle fill="#6C6E70" cx="314.005" cy="134.878" r="3.822"/><path d="M314.005 139.714c-2.666 0-4.836-2.17-4.836-4.837s2.17-4.836 4.836-4.836c2.667 0 4.836 2.17 4.836 4.836s-2.169 4.837-4.836 4.837zm0-7.644a2.811 2.811 0 00-2.808 2.808 2.812 2.812 0 002.808 2.808 2.811 2.811 0 002.808-2.808 2.812 2.812 0 00-2.808-2.808z"/><circle fill="#6C6E70" cx="314.005" cy="147.051" r="3.822"/><path d="M314.005 151.887a4.842 4.842 0 01-4.836-4.836 4.842 4.842 0 014.836-4.836 4.842 4.842 0 014.836 4.836 4.84 4.84 0 01-4.836 4.836zm0-7.644a2.811 2.811 0 00-2.808 2.808 2.812 2.812 0 002.808 2.808 2.811 2.811 0 002.808-2.808 2.812 2.812 0 00-2.808-2.808z"/><path fill="#FECFBC" d="M91.356 100.305s17.019-32.679 20.764-56.508c3.744-23.829 20.084-40.509 65.699-40.509 45.618 0 55.147 20.084 66.381 48.51s11.916 38.637 22.468 48.508c0 0-15.319 2.726-15.319 31.661 0 28.935 12.597 20.423 10.215 39.146-2.385 18.722-6.809 42.893-42.212 68.423-35.403 25.53-40.851 29.955-63.659 16.34-22.809-13.616-35.742-27.914-45.275-39.828-9.531-11.916-13.957-34.383-14.978-40.169-1.02-5.789-6.469-12.596 2.043-19.404 8.511-6.809 29.957-26.554-6.127-56.17z"/><path fill="#DC9F8D" d="M125.663 92.391c-19.219 0-30.046 5.126-34.135 7.581-.107.212-.171.333-.171.333 13.215 10.848 18.695 20.364 19.938 28.412 20.362-3.662 33.153-11.341 38.665-16.853 7.132-7.134.962-19.473-24.297-19.473zM200.164 105.921c0 4.535 6.391 17.521 22.674 23.5 7.202 2.643 18.354 1.777 28.555-.01.846-25.772 14.449-28.938 15.236-29.099-4.953-3.27-15.22-7.921-33.69-7.921-28.446 0-32.775 8.995-32.775 13.53z"/><path d="M91.559 101.136s13.122-4.772 22.5-4.772c9.375 0 31.665-.703 38.317 2.321L146.236 88h-41.911c.001 0-9.675 4.945-12.766 13.136zM200.153 98.438s10.694-1.458 20.373-1.458 29.848-2.392 36.802.784c6.959 3.176 9.932 3.359 9.932 3.359L256.326 88h-47.787l-8.386 10.438zM151.165 87.707l6.14 10.604-1.755 1.016-6.14-10.604zM155.23 87.708l6.14 10.604-1.756 1.017-6.14-10.604zM203.691 87.58l1.576 1.278-8.387 10.331-1.576-1.279zM199.637 87.574l1.575 1.28-8.388 10.33-1.575-1.28z"/><ellipse transform="rotate(7.545 120.837 130.216)" fill="#FFF" cx="120.84" cy="130.22" rx="27.351" ry="14.349"/><path d="M125.669 145.91c-2.247 0-4.55-.154-6.846-.458-15.768-2.088-27.234-10.414-26.103-18.954.932-7.043 10.508-11.963 23.287-11.963 2.247 0 4.552.154 6.849.459 15.768 2.088 27.233 10.412 26.103 18.952-.933 7.043-10.511 11.964-23.29 11.964zm-9.661-29.347c-11.546 0-20.494 4.289-21.276 10.2-.965 7.289 9.961 14.77 24.357 16.677 2.209.292 4.423.441 6.581.441 11.547 0 20.496-4.291 21.279-10.202.965-7.288-9.962-14.769-24.357-16.675a50.482 50.482 0 00-6.584-.441z"/><ellipse fill="#30201D" cx="121.854" cy="129.16" rx="14.762" ry="13.885"/><g opacity=".8"><path fill="#FFF" d="M126.178 116.23c-.228 2.726-.882 5.73-2.415 8.306 2.33.271 4.147 2.227 4.147 4.631 0 .557-.113 1.084-.294 1.581 2.079-3.18 5.006-5.159 7.705-6.372-1.555-3.868-4.925-6.898-9.143-8.146z"/><path fill="#56453D" d="M118.564 129.434c-3.218 1.814-7.173 2.849-10.575 3.428 1.71 5.691 7.261 9.867 13.863 9.867 1.04 0 2.052-.111 3.033-.308-.246-4.258.547-7.602 1.9-10.241-.859 1.014-2.128 1.674-3.562 1.674-2.495 0-4.517-1.96-4.659-4.42z"/></g><path fill="#1C0F0C" d="M121.856 117.302c7.021 0 12.731 5.319 12.731 11.858 0 6.537-5.711 11.855-12.731 11.855-7.023 0-12.736-5.318-12.736-11.855.001-6.538 5.714-11.858 12.736-11.858m0-2.029c-8.155 0-14.765 6.217-14.765 13.887 0 7.667 6.61 13.885 14.765 13.885 8.151 0 14.76-6.217 14.76-13.885.001-7.669-6.608-13.887-14.76-13.887z"/><path d="M139.908 116.139c-.231-.143-23.37-13.946-43.604-.03l-1.149-1.672c21.334-14.666 45.569-.177 45.811-.029l-1.058 1.731z"/><path d="M94.363 130.961s-2.756-12.286 22.255-12.286c25.014 0 29.664 8.888 29.664 8.888s-9.011-12.011-29.769-12.011-24.078 10.133-22.15 15.409z"/><circle cx="123.261" cy="129.16" r="5.242"/><ellipse transform="rotate(172.455 232.438 130.226)" fill="#FFF" cx="232.43" cy="130.22" rx="27.35" ry="14.349"/><path d="M227.602 145.91c-12.782 0-22.359-4.921-23.293-11.965-1.129-8.539 10.337-16.864 26.105-18.952a52.25 52.25 0 016.849-.459c12.779 0 22.355 4.92 23.288 11.963 1.13 8.54-10.336 16.866-26.104 18.954-2.296.304-4.6.459-6.845.459zm9.66-29.347a50.49 50.49 0 00-6.583.441c-14.396 1.907-25.321 9.387-24.355 16.675.781 5.911 9.731 10.202 21.278 10.202a50.41 50.41 0 006.58-.441c14.396-1.907 25.322-9.388 24.355-16.677-.783-5.911-9.73-10.2-21.275-10.2z"/><ellipse fill="#30201D" cx="231.415" cy="129.16" rx="14.763" ry="13.885"/><g opacity=".8"><path fill="#FFF" d="M227.092 116.23c.229 2.726.882 5.73 2.415 8.306-2.329.271-4.146 2.227-4.146 4.631 0 .557.113 1.084.294 1.581-2.079-3.18-5.008-5.159-7.707-6.372 1.555-3.868 4.926-6.898 9.144-8.146z"/><path fill="#56453D" d="M234.706 129.434c3.219 1.814 7.172 2.849 10.574 3.428-1.71 5.691-7.262 9.867-13.862 9.867-1.04 0-2.054-.111-3.034-.308.246-4.258-.547-7.602-1.899-10.241.859 1.014 2.127 1.674 3.562 1.674 2.496 0 4.517-1.96 4.659-4.42z"/></g><path fill="#1C0F0C" d="M231.414 117.302c7.02 0 12.735 5.319 12.735 11.858 0 6.537-5.715 11.855-12.735 11.855-7.021 0-12.733-5.318-12.733-11.855 0-6.538 5.713-11.858 12.733-11.858m0-2.029c-8.151 0-14.762 6.217-14.762 13.887 0 7.667 6.61 13.885 14.762 13.885 8.153 0 14.764-6.217 14.764-13.885 0-7.669-6.611-13.887-14.764-13.887z"/><path d="M213.362 116.139l-1.058-1.731c.241-.148 24.479-14.636 45.811.029l-1.149 1.672c-20.258-13.931-43.37-.111-43.604.03z"/><path d="M258.907 130.961s2.756-12.286-22.256-12.286c-25.014 0-29.664 8.888-29.664 8.888s9.012-12.011 29.77-12.011 24.078 10.133 22.15 15.409z"/><circle cx="230.009" cy="129.16" r="5.242"/><path fill="#FFF" d="M85.661 121.247c-5.773 20.886 10.814 26.636 24.12 28.094 11.442-6.843 23.289-16.032 23.289-24.776 0-7.483-1.623-12.011-3.448-14.787a299.97 299.97 0 00-7.931-.103c-33.138.001-35.808 10.771-36.03 11.572z" opacity=".4"/><path d="M118.597 150.816c-10.773 0-24.999-1.816-31.585-10.469-3.74-4.915-4.524-11.431-2.33-19.371.796-2.904 5.802-12.315 37.007-12.315 34.868 0 40.901 5.309 42.263 9.934 1.433 4.868-1.207 21.313-9.102 26.387-8.32 5.349-30.152 5.683-30.367 5.683-.175 0-.494.014-.936.033-1.059.045-2.79.118-4.95.118zm3.093-40.126c-31.182 0-34.742 9.696-35.045 10.802-2.024 7.32-1.354 13.243 1.981 17.626 6.082 7.992 19.656 9.668 29.971 9.668a108.1 108.1 0 004.864-.117c.482-.02.831-.034 1.022-.034 4.153 0 22.415-.955 29.27-5.361 7.1-4.562 9.393-20.234 8.254-24.108-1.68-5.703-14.866-8.476-40.317-8.476z"/><g><path d="M62.946 115.476l22.918 4.464-.775 3.982-22.919-4.464z"/></g><g opacity=".4"><path fill="#FFF" d="M231.751 109.686c-31.169.214-37.732 4.828-39.017 9.195-1.314 4.47 1.312 20.514 8.679 25.247 3.825 2.46 10.894 3.85 17.235 4.62 6.588-5.474 8.422-13.477 12.479-25.537 2.06-6.117 1.804-10.444.624-13.525z"/></g><g><path d="M237.119 152h-.002c-2.16 0-3.892-.665-4.949-.711-.444-.019-.763-.328-.937-.328-.216 0-22.046-.482-30.367-5.832-7.896-5.073-10.535-21.593-9.102-26.46 1.36-4.625 7.394-9.971 42.262-9.971 31.205 0 36.21 9.393 37.003 12.277 2.199 7.96 1.414 15.059-2.324 19.972-6.586 8.654-20.811 11.053-31.584 11.053zm-3.095-41.31c-25.449 0-38.638 2.773-40.317 8.477-1.139 3.874 1.153 19.545 8.254 24.108 6.855 4.406 25.117 5.361 29.27 5.361.192 0 .538.014 1.021.034 1.041.044 2.743.117 4.864.117 10.315 0 23.888-1.676 29.971-9.668 3.336-4.384 4.004-10.306 1.989-17.602-.309-1.13-3.868-10.827-35.052-10.827z"/></g><g><path d="M292.777 115.47l.777 3.981-22.919 4.47-.776-3.983z"/></g><g><path d="M192.187 119.734c-.051-.031-5-3.115-15.33-3.115-10.092 0-13.116 2.935-13.145 2.964l-1.473-1.393c.138-.148 3.483-3.601 14.618-3.601 10.997 0 16.213 3.3 16.429 3.441l-1.099 1.704z"/></g><g><path d="M175.335 190.059c-9.238 0-11.501-3.459-13.501-6.51-.427-.655-.831-1.107-1.294-1.661-.581-.695-1.176-.889-1.773-.889h-.008c-.886 0-1.73.598-1.98.891l-1.555-1.383c.15-.183 1.542-1.824 3.534-1.824 1.229 0 2.354.578 3.338 1.761.537.643.993 1.33 1.434 2.004 1.801 2.749 3.662 5.587 11.803 5.587 4.646 0 7.557-2.748 10.126-5.169 2.919-2.751 5.939-5.593 10.277-1.755l-1.344 1.519c-2.837-2.507-4.361-1.288-7.543 1.71-2.699 2.548-6.064 5.719-11.514 5.719z"/></g><g><path fill="#DC9F8D" d="M189.75 156.917s-5.297-5.298-7.365-7.364c-2.068-2.066-3.618-4.004-7.05-4.004s-7.293.904-9.876 3.745c-1.072 1.179-2.719 2.689-4.283 4.054a23.198 23.198 0 01-1.598 4.597c2.403.571 5.478.571 7.818-.509 3.357-1.551 8.656-1.679 11.499-.518 2.843 1.165 8.658 1.035 9.95 1.035 1.292-.001.905-1.036.905-1.036z"/></g><g><path d="M155.533 186.158c-.704 0-1.448-.169-2.207-.512-3.451-1.56-6.839-6.588-6.839-10.153 0-4.815 2.772-7.458 8.294-12.726l.521.309c5.47-5.221 5.534-13.075 5.534-13.075h2.028s-.07 8.729-6.161 14.544l-.522.094c-5.422 5.171-7.666 7.109-7.666 11.056 0 2.795 2.902 6.964 5.646 8.203 1.676.756 2.498-.018 2.768-.257l1.339 1.497c-.788.695-1.724 1.02-2.735 1.02z"/></g><g><path d="M194.534 186.35c-1.298 0-2.7-.331-4.186-1.098l.932-1.803c5.238 2.707 8.439-1.738 9.294-3.165 1.395-2.325 1.671-7.723.038-10.057-1.898-2.718-4.512-8.962-4.622-9.226l1.874-.781c.025.062 2.637 6.306 4.412 8.844 2.144 3.068 1.812 9.308.037 12.264-1.624 2.706-4.342 5.022-7.779 5.022z"/></g><g><path d="M174.939 217.71c-7.091 0-13.683-.308-15.66-.92-3.689-1.137-17.27-3.274-17.407-3.295l.315-2.005c.563.09 13.862 2.181 17.689 3.36 3.656 1.132 25.326 1.108 33.128-.032l22.719-3.329.293 2.007-22.719 3.329c-4.037.592-11.435.885-18.358.885z"/></g><g><path fill="#DC9F8D" d="M187.508 230h-26.374s4.299 9.97 13.556 9.97c9.255 0 12.818-9.97 12.818-9.97z"/></g><g><path d="M161.122 230h26v3h-26z"/></g><g><path fill="#FEE8DC" d="M202.298 216.467s-1.992 5.182-4.184 6.776c0 0 4.783 2.191 7.174 0s-.799-6.178-2.99-6.776z"/></g><g><circle cx="74.777" cy="131.093" r="1.47"/><circle cx="80.863" cy="112.835" r="1.47"/><circle cx="70.72" cy="110.806" r="1.47"/><circle cx="84.921" cy="104.719" r="1.47"/><circle cx="76.806" cy="100.661" r="1.47"/><circle cx="68.691" cy="92.546" r="1.47"/><circle cx="78.835" cy="90.517" r="1.47"/><circle cx="72.749" cy="82.402" r="1.47"/><circle cx="82.893" cy="74.286" r="1.47"/><circle cx="70.72" cy="72.258" r="1.47"/><circle cx="78.835" cy="64.143" r="1.47"/><circle cx="74.777" cy="58.056" r="1.47"/><circle cx="86.95" cy="60.084" r="1.47"/><circle cx="82.893" cy="51.969" r="1.47"/><circle cx="78.835" cy="43.854" r="1.47"/><circle cx="88.979" cy="47.912" r="1.47"/><circle cx="82.893" cy="37.768" r="1.47"/></g><g><circle cx="281.719" cy="131.093" r="1.47"/><circle cx="273.602" cy="104.719" r="1.47"/><circle cx="277.66" cy="112.835" r="1.47"/><circle cx="281.719" cy="100.661" r="1.47"/><circle cx="287.805" cy="92.546" r="1.47"/><circle cx="275.631" cy="90.517" r="1.47"/><circle cx="281.719" cy="82.402" r="1.47"/><circle cx="273.602" cy="74.286" r="1.47"/><circle cx="283.747" cy="72.258" r="1.47"/><circle cx="277.66" cy="64.143" r="1.47"/><circle cx="283.747" cy="58.056" r="1.47"/><circle cx="269.545" cy="60.084" r="1.47"/><circle cx="275.631" cy="53.998" r="1.47"/><circle cx="267.515" cy="47.912" r="1.47"/><circle cx="277.66" cy="43.854" r="1.47"/><circle cx="271.574" cy="37.768" r="1.47"/></g></g></svg>
